<svg width="14" height="15" viewBox="0 0 14 15" fill="none" xmlns="http://www.w3.org/2000/svg">
<path d="M7 0.25C8.3125 0.268229 9.48828 0.58724 10.5273 1.20703C11.5846 1.82682 12.4232 2.66536 13.043 3.72266C13.6628 4.76172 13.9818 5.9375 14 7.25C13.9818 8.5625 13.6628 9.73828 13.043 10.7773C12.4232 11.8346 11.5846 12.6732 10.5273 13.293C9.48828 13.9128 8.3125 14.2318 7 14.25C5.6875 14.2318 4.51172 13.9128 3.47266 13.293C2.41536 12.6732 1.57682 11.8346 0.957031 10.7773C0.33724 9.73828 0.0182292 8.5625 0 7.25C0.0182292 5.9375 0.33724 4.76172 0.957031 3.72266C1.57682 2.66536 2.41536 1.82682 3.47266 1.20703C4.51172 0.58724 5.6875 0.268229 7 0.25ZM10.1719 6.04688C10.3177 5.88281 10.3906 5.70052 10.3906 5.5C10.3906 5.29948 10.3177 5.11719 10.1719 4.95312C10.0078 4.80729 9.82552 4.73438 9.625 4.73438C9.42448 4.73438 9.24219 4.80729 9.07812 4.95312L6.125 7.90625L4.92188 6.70312C4.75781 6.55729 4.57552 6.48438 4.375 6.48438C4.17448 6.48438 3.99219 6.55729 3.82812 6.70312C3.68229 6.86719 3.60938 7.04948 3.60938 7.25C3.60938 7.45052 3.68229 7.63281 3.82812 7.79688L5.57812 9.54688C5.74219 9.69271 5.92448 9.76562 6.125 9.76562C6.32552 9.76562 6.50781 9.69271 6.67188 9.54688L10.1719 6.04688Z" fill="#171717"/>
</svg>
