<svg width="44" height="44" viewBox="0 0 44 44" fill="none" xmlns="http://www.w3.org/2000/svg">
<rect width="44" height="44" rx="5" fill="#FFE32C" fill-opacity="0.18"/>
<path d="M22 13.9375C24.2812 14 26.1875 14.7812 27.7188 16.2812C29.2188 17.8125 30 19.7188 30.0625 22C30 24.2812 29.2188 26.1875 27.7188 27.7188C26.1875 29.2188 24.2812 30 22 30.0625C19.7188 30 17.8125 29.2188 16.2812 27.7188C14.7812 26.1875 14 24.2812 13.9375 22C14 19.7188 14.7812 17.8125 16.2812 16.2812C17.8125 14.7812 19.7188 14 22 13.9375ZM22 16.1875C21.125 16.1875 20.3125 16.375 19.5625 16.75L20.8281 18.4844C21.2031 18.3281 21.5938 18.25 22 18.25C22.4062 18.25 22.7969 18.3281 23.1719 18.4844L24.4375 16.75C23.6875 16.375 22.875 16.1875 22 16.1875ZM16.2812 22.7031L18.25 22.0469C18.25 22.0469 18.25 22.0312 18.25 22C18.25 21.1562 18.5 20.4219 19 19.7969L17.7344 18.0625C16.7344 19.125 16.2188 20.4375 16.1875 22C16.1875 22.1875 16.2031 22.3594 16.2344 22.5156C16.2344 22.5781 16.25 22.6406 16.2812 22.7031ZM20.875 27.7188V25.5625C20.0625 25.3125 19.4219 24.8438 18.9531 24.1562L16.9375 24.8125C17.8125 26.3438 19.125 27.3125 20.875 27.7188ZM22 23.5C22.4375 23.5 22.7969 23.3594 23.0781 23.0781C23.3594 22.7969 23.5 22.4375 23.5 22C23.5 21.5625 23.3594 21.2031 23.0781 20.9219C22.7969 20.6406 22.4375 20.5 22 20.5C21.5625 20.5 21.2031 20.6406 20.9219 20.9219C20.6406 21.2031 20.5 21.5625 20.5 22C20.5 22.4375 20.6406 22.7969 20.9219 23.0781C21.2031 23.3594 21.5625 23.5 22 23.5ZM23.125 27.7188C24.875 27.3125 26.1875 26.3438 27.0625 24.8125L25.0469 24.1562C24.5781 24.8438 23.9375 25.3125 23.125 25.5625V27.7188ZM25.75 22.0469L27.7656 22.7031C27.7656 22.6406 27.7656 22.5781 27.7656 22.5156C27.7969 22.3594 27.8125 22.1875 27.8125 22C27.7812 20.4375 27.2656 19.125 26.2656 18.0625L25 19.7969C25.4688 20.4219 25.7188 21.1562 25.75 22C25.75 22.0312 25.75 22.0469 25.75 22.0469ZM22 10C24.25 10.0312 26.2656 10.5781 28.0469 11.6406C29.8594 12.7031 31.2969 14.1406 32.3594 15.9531C33.4219 17.7344 33.9688 19.75 34 22C33.9688 24.25 33.4219 26.2656 32.3594 28.0469C31.2969 29.8594 29.8594 31.2969 28.0469 32.3594C26.2656 33.4219 24.25 33.9688 22 34C19.75 33.9688 17.7344 33.4219 15.9531 32.3594C14.1406 31.2969 12.7031 29.8594 11.6406 28.0469C10.5781 26.2656 10.0312 24.25 10 22C10.0312 19.75 10.5781 17.7344 11.6406 15.9531C12.7031 14.1406 14.1406 12.7031 15.9531 11.6406C17.7344 10.5781 19.75 10.0312 22 10ZM22 31.75C24.75 31.6875 27.0469 30.7344 28.8906 28.8906C30.7344 27.0469 31.6875 24.75 31.75 22C31.6875 19.25 30.7344 16.9531 28.8906 15.1094C27.0469 13.2656 24.75 12.3125 22 12.25C19.25 12.3125 16.9531 13.2656 15.1094 15.1094C13.2656 16.9531 12.3125 19.25 12.25 22C12.3125 24.75 13.2656 27.0469 15.1094 28.8906C16.9531 30.7344 19.25 31.6875 22 31.75Z" fill="#FFBC03"/>
</svg>
