<svg width="50" height="50" viewBox="0 0 50 50" fill="none" xmlns="http://www.w3.org/2000/svg">
<rect width="50" height="50" rx="10" fill="black"/>
<path d="M25 15.5C27.1354 15.5521 28.9062 16.2812 30.3125 17.6875C31.7188 19.0938 32.4479 20.8646 32.5 23C32.5 23.8073 32.3958 24.5365 32.1875 25.1875C31.9792 25.8646 31.5755 26.6589 30.9766 27.5703C30.3776 28.5078 29.5182 29.7578 28.3984 31.3203C27.6693 32.362 26.7969 33.625 25.7812 35.1094C25.5729 35.3698 25.3125 35.5 25 35.5C24.6875 35.5 24.4271 35.3698 24.2188 35.1094C23.2292 33.651 22.3568 32.401 21.6016 31.3594C20.4818 29.7708 19.6224 28.5078 19.0234 27.5703C18.4245 26.6589 18.0208 25.8646 17.8125 25.1875C17.6042 24.5365 17.5 23.8073 17.5 23C17.5521 20.8646 18.2812 19.0938 19.6875 17.6875C21.0938 16.2812 22.8646 15.5521 25 15.5ZM25 32.9219C25.2083 32.6094 25.4167 32.3099 25.625 32.0234C26.0677 31.3724 26.4714 30.7865 26.8359 30.2656C27.9557 28.6771 28.7891 27.4661 29.3359 26.6328C29.8828 25.7995 30.2344 25.1354 30.3906 24.6406C30.5729 24.1198 30.651 23.5729 30.625 23C30.5729 21.4115 30.026 20.0833 28.9844 19.0156C27.9167 17.974 26.5885 17.4271 25 17.375C23.4115 17.4271 22.0833 17.974 21.0156 19.0156C19.974 20.0833 19.4271 21.4115 19.375 23C19.349 23.5729 19.4271 24.1198 19.6094 24.6406C19.7656 25.1354 20.1172 25.7995 20.6641 26.6328C21.2109 27.4661 22.0443 28.6771 23.1641 30.2656C23.7109 31.0469 24.3229 31.9323 25 32.9219ZM25 19.8359C25.8854 19.862 26.6276 20.1745 27.2266 20.7734C27.7995 21.3464 28.099 22.0755 28.125 22.9609C28.099 23.8464 27.7995 24.5885 27.2266 25.1875C26.6276 25.7604 25.8854 26.0599 25 26.0859C24.1146 26.0599 23.3724 25.7604 22.7734 25.1875C22.2005 24.5885 21.901 23.8464 21.875 22.9609C21.901 22.0755 22.2005 21.3464 22.7734 20.7734C23.3724 20.1745 24.1146 19.862 25 19.8359ZM25 24.25C25.3646 24.25 25.6641 24.1328 25.8984 23.8984C26.1328 23.6641 26.25 23.3646 26.25 23C26.25 22.6354 26.1328 22.3359 25.8984 22.1016C25.6641 21.8672 25.3646 21.75 25 21.75C24.6354 21.75 24.3359 21.8672 24.1016 22.1016C23.8672 22.3359 23.75 22.6354 23.75 23C23.75 23.3646 23.8672 23.6641 24.1016 23.8984C24.3359 24.1328 24.6354 24.25 25 24.25Z" fill="white"/>
</svg>
