<svg width="50" height="50" viewBox="0 0 50 50" fill="none" xmlns="http://www.w3.org/2000/svg">
<rect width="50" height="50" rx="10" fill="black"/>
<path d="M32.5 18C33.2031 18.026 33.7891 18.2734 34.2578 18.7422C34.7266 19.2109 34.974 19.7969 35 20.5V30.5C34.974 31.2031 34.7266 31.7891 34.2578 32.2578C33.7891 32.7266 33.2031 32.974 32.5 33H17.5C16.7969 32.974 16.2109 32.7266 15.7422 32.2578C15.2734 31.7891 15.026 31.2031 15 30.5V20.5C15.026 19.7969 15.2734 19.2109 15.7422 18.7422C16.2109 18.2734 16.7969 18.026 17.5 18H32.5ZM17.5 19.875C17.1094 19.901 16.901 20.1094 16.875 20.5V21.3594L23.3984 26.75C23.8672 27.1406 24.401 27.3359 25 27.3359C25.599 27.3359 26.1328 27.1406 26.6016 26.75L33.125 21.3594V20.5C33.099 20.1094 32.8906 19.901 32.5 19.875H17.5ZM32.5 31.125C32.8906 31.099 33.099 30.8906 33.125 30.5V23.8203L27.8125 28.2344C26.9792 28.9115 26.0417 29.25 25 29.25C23.9583 29.25 23.0208 28.9115 22.1875 28.2344L16.875 23.8203V30.5C16.901 30.8906 17.1094 31.099 17.5 31.125H32.5Z" fill="white"/>
</svg>
