<svg width="50" height="50" viewBox="0 0 50 50" fill="none" xmlns="http://www.w3.org/2000/svg">
<rect width="50" height="50" rx="10" fill="black"/>
<path d="M33.75 28C34.2188 28.2083 34.5573 28.5339 34.7656 28.9766C34.974 29.3932 35.026 29.849 34.9219 30.3438L34.1016 33.8984C33.9974 34.3932 33.763 34.7839 33.3984 35.0703C33.0339 35.3568 32.6172 35.5 32.1484 35.5C28.9453 35.474 26.0547 34.6927 23.4766 33.1562C20.9245 31.6198 18.8802 29.5755 17.3438 27.0234C15.8073 24.4453 15.026 21.5547 15 18.3516C15 17.8828 15.1432 17.4661 15.4297 17.1016C15.7161 16.737 16.1068 16.4896 16.6016 16.3594L20.1562 15.5391C20.651 15.4349 21.1068 15.5 21.5234 15.7344C21.9661 15.9427 22.2917 16.2812 22.5 16.75L24.1406 20.6172C24.3229 21.0339 24.362 21.4635 24.2578 21.9062C24.1536 22.349 23.9193 22.7135 23.5547 23L22.2266 24.0938C23.2682 25.8385 24.6745 27.2318 26.4453 28.2734L27.5391 26.9453C27.8255 26.5807 28.1901 26.3464 28.6328 26.2422C29.0755 26.138 29.5052 26.1771 29.9219 26.3594L33.75 28ZM33.125 29.9141C33.125 29.8359 33.0859 29.7578 33.0078 29.6797L29.1797 28.0391C29.1016 28.013 29.0365 28.0391 28.9844 28.1172L27.4219 29.9922C27.0833 30.3568 26.7057 30.4479 26.2891 30.2656C24.9609 29.6146 23.776 28.7682 22.7344 27.7266C21.7188 26.6849 20.8724 25.5 20.1953 24.1719C20.013 23.7292 20.1042 23.3516 20.4688 23.0391L22.3828 21.5156C22.4349 21.4635 22.4479 21.3984 22.4219 21.3203L20.7812 17.4922C20.7292 17.4141 20.6771 17.375 20.625 17.375C20.599 17.375 20.5859 17.375 20.5859 17.375L16.9922 18.1953C16.9141 18.2214 16.875 18.2734 16.875 18.3516C16.901 21.1901 17.5911 23.7552 18.9453 26.0469C20.3255 28.3385 22.1615 30.1745 24.4531 31.5547C26.7448 32.9089 29.3099 33.599 32.1484 33.625C32.2266 33.599 32.2786 33.5599 32.3047 33.5078L33.125 29.9141Z" fill="white"/>
</svg>
