<svg width="50" height="50" viewBox="0 0 50 50" fill="none" xmlns="http://www.w3.org/2000/svg">
<rect width="50" height="50" rx="10" fill="black"/>
<path d="M31.3828 19.2891C32.2161 20.1224 32.8542 21.0599 33.2969 22.1016C33.7656 23.1432 34 24.25 34 25.4219C33.974 27.0365 33.5703 28.4948 32.7891 29.7969C32.0078 31.099 30.9531 32.1406 29.625 32.9219C28.3229 33.6771 26.8646 34.0677 25.25 34.0938C23.7656 34.0938 22.3854 33.7422 21.1094 33.0391L16.5 34.25L17.7109 29.7578C16.9557 28.4297 16.5781 26.9844 16.5781 25.4219C16.6042 23.8073 16.9948 22.349 17.75 21.0469C18.5312 19.7448 19.5729 18.7031 20.875 17.9219C22.1771 17.1667 23.6354 16.776 25.25 16.75C27.6198 16.776 29.6641 17.6224 31.3828 19.2891ZM25.25 32.6484C27.2812 32.5964 28.987 31.8932 30.3672 30.5391C31.7474 29.1589 32.4766 27.4531 32.5547 25.4219C32.5026 23.4427 31.7604 21.75 30.3281 20.3438C28.9219 18.9375 27.2292 18.2344 25.25 18.2344C23.2188 18.2604 21.526 18.9635 20.1719 20.3438C18.7917 21.6979 18.0755 23.3906 18.0234 25.4219C18.0495 26.8021 18.4271 28.0781 19.1562 29.25L19.3125 29.5234L18.5703 32.1797L21.3047 31.4766L21.5781 31.6328C22.6979 32.2839 23.9219 32.6224 25.25 32.6484ZM29.1953 27.2578C29.2214 27.2578 29.2604 27.2708 29.3125 27.2969C29.4688 27.349 29.5729 27.4141 29.625 27.4922C29.7031 27.6224 29.651 27.974 29.4688 28.5469C29.3646 28.8073 29.1562 29.0286 28.8438 29.2109C28.5312 29.3932 28.2578 29.5104 28.0234 29.5625C27.7109 29.6146 27.3594 29.6146 26.9688 29.5625C26.6042 29.4844 26.0833 29.3021 25.4062 29.0156C24.3906 28.5208 23.5703 27.9219 22.9453 27.2188C22.2943 26.5156 21.9036 26.0469 21.7734 25.8125C21.7474 25.7865 21.7344 25.7604 21.7344 25.7344C21.7083 25.7344 21.6953 25.7344 21.6953 25.7344C21.6172 25.6302 21.4609 25.3698 21.2266 24.9531C20.9922 24.5104 20.862 24.0286 20.8359 23.5078C20.862 23.013 20.9531 22.6224 21.1094 22.3359C21.2656 22.0495 21.4089 21.8542 21.5391 21.75C21.5651 21.724 21.5781 21.6979 21.5781 21.6719C21.8125 21.4896 22.0078 21.4115 22.1641 21.4375C22.3203 21.4375 22.4635 21.4375 22.5938 21.4375C22.5938 21.4375 22.6068 21.4375 22.6328 21.4375C22.763 21.3594 22.9062 21.4766 23.0625 21.7891C23.1146 21.9193 23.1927 22.0885 23.2969 22.2969C23.401 22.5573 23.4922 22.7917 23.5703 23C23.6484 23.2344 23.7005 23.3646 23.7266 23.3906C23.8047 23.5208 23.8177 23.651 23.7656 23.7812C23.5573 24.1458 23.388 24.3802 23.2578 24.4844C23.0755 24.6406 23.0365 24.7969 23.1406 24.9531C23.5312 25.6562 23.9609 26.1901 24.4297 26.5547C24.8984 26.9193 25.4453 27.2448 26.0703 27.5312C26.2786 27.6615 26.4349 27.6484 26.5391 27.4922C26.6172 27.4141 26.7344 27.2839 26.8906 27.1016C27.0208 26.9193 27.138 26.763 27.2422 26.6328C27.3724 26.4505 27.5286 26.4245 27.7109 26.5547C27.8411 26.6068 28.0885 26.7109 28.4531 26.8672C28.8177 27.0495 29.0651 27.1797 29.1953 27.2578Z" fill="white"/>
</svg>
